<svg width="20.000000" height="20.000000" viewBox="0 0 20 20" fill="none" xmlns="http://www.w3.org/2000/svg" xmlns:xlink="http://www.w3.org/1999/xlink">
	<desc>
			Created with Pixso.
	</desc>
	<defs/>
	<path d="M7.54 18.18C7.09 18.18 6.72 17.81 6.72 17.36C6.72 16.91 7.09 16.54 7.54 16.54C7.99 16.54 8.36 16.91 8.36 17.36C8.36 17.81 7.99 18.18 7.54 18.18Z" stroke="#9B9B9B" stroke-opacity="1.000000" stroke-width="2.000000" stroke-linejoin="round"/>
	<path d="M16.54 18.18C16.09 18.18 15.72 17.81 15.72 17.36C15.72 16.91 16.09 16.54 16.54 16.54C16.99 16.54 17.36 16.91 17.36 17.36C17.36 17.81 16.99 18.18 16.54 18.18Z" stroke="#9B9B9B" stroke-opacity="1.000000" stroke-width="2.000000" stroke-linejoin="round"/>
	<path d="M1 1L4.27 1L6.46 11.95C6.54 12.33 6.74 12.67 7.04 12.91C7.34 13.15 7.71 13.28 8.1 13.27L16.05 13.27C16.43 13.28 16.81 13.15 17.11 12.91C17.41 12.67 17.61 12.33 17.69 11.95L19 5.09L5.09 5.09" stroke="#9B9B9B" stroke-opacity="1.000000" stroke-width="2.000000" stroke-linejoin="round" stroke-linecap="round"/>
</svg>
