<svg width="16.000000" height="16.000000" viewBox="0 0 16 16" fill="none" xmlns="http://www.w3.org/2000/svg" xmlns:xlink="http://www.w3.org/1999/xlink">
	<desc>
			Created with Pixso.
	</desc>
	<defs>
		<clipPath id="clip177855_5">
			<rect id="8666647_heart_icon 1" width="16.000000" height="16.000000" fill="white" fill-opacity="0"/>
		</clipPath>
	</defs>
	<rect id="8666647_heart_icon 1" width="16.000000" height="16.000000" fill="#FFFFFF" fill-opacity="0"/>
	<g clip-path="url(#clip177855_5)">
		<path id="Vector" d="M12.67 2.27C12.22 2.09 11.74 2 11.26 2C10.78 2 10.3 2.09 9.86 2.27C9.41 2.46 9.01 2.73 8.67 3.07L7.96 3.78L7.26 3.07C6.57 2.38 5.64 2 4.66 2C3.69 2 2.76 2.38 2.07 3.07C1.38 3.76 1 4.69 1 5.66C1 6.64 1.38 7.57 2.07 8.26L2.78 8.96L7.96 14.15L13.15 8.96L13.86 8.26C14.2 7.92 14.47 7.51 14.65 7.07C14.84 6.62 14.93 6.14 14.93 5.66C14.93 5.18 14.84 4.7 14.65 4.26C14.47 3.81 14.2 3.41 13.86 3.07C13.52 2.73 13.11 2.46 12.67 2.27Z" stroke="#EAEAEA" stroke-opacity="1.000000" stroke-width="1.200000" stroke-linejoin="round"/>
	</g>
</svg>
