<svg width="32.000000" height="32.000000" viewBox="0 0 32 32" fill="none" xmlns="http://www.w3.org/2000/svg" xmlns:xlink="http://www.w3.org/1999/xlink">
	<desc>
			Created with Pixso.
	</desc>
	<defs/>
	<rect rx="7.000000" width="32.000000" height="32.000000" fill="#FEF0F0" fill-opacity="1.000000"/>
	<path d="M22.58 12.22C22.36 11.7 22.03 11.24 21.63 10.85C21.23 10.46 20.75 10.14 20.23 9.93C19.69 9.71 19.11 9.59 18.52 9.59C17.7 9.59 16.9 9.82 16.2 10.24C16.04 10.34 15.88 10.45 15.73 10.57C15.58 10.45 15.42 10.34 15.25 10.24C14.56 9.82 13.76 9.59 12.93 9.59C12.34 9.59 11.77 9.71 11.23 9.93C10.7 10.15 10.23 10.46 9.83 10.85C9.42 11.24 9.1 11.7 8.88 12.22C8.65 12.75 8.53 13.32 8.53 13.9C8.53 14.45 8.64 15.03 8.87 15.61C9.06 16.1 9.33 16.61 9.67 17.12C10.22 17.93 10.97 18.77 11.9 19.62C13.45 21.04 14.98 22.02 15.05 22.06L15.44 22.31C15.62 22.42 15.84 22.42 16.02 22.31L16.41 22.06C16.48 22.02 18.01 21.04 19.55 19.62C20.49 18.77 21.24 17.93 21.79 17.12C22.13 16.61 22.4 16.1 22.59 15.61C22.82 15.03 22.93 14.45 22.93 13.9C22.93 13.32 22.81 12.75 22.58 12.22Z" fill="#FF8585" fill-opacity="1.000000" fill-rule="nonzero"/>
</svg>
