<svg width="19.000000" height="17.000000" viewBox="0 0 19 17" fill="none" xmlns="http://www.w3.org/2000/svg" xmlns:xlink="http://www.w3.org/1999/xlink">
	<desc>
			Created with Pixso.
	</desc>
	<defs>
		<clipPath id="clip60_590">
			<rect width="18.110001" height="16.299000" fill="white" fill-opacity="0"/>
		</clipPath>
	</defs>
	<rect width="18.110001" height="16.299000" fill="#FFFFFF" fill-opacity="0"/>
	<g clip-path="url(#clip60_590)">
		<path d="M12.95 0C14.35 0 15.52 0.47 16.47 1.41C17.42 2.35 17.9 3.5 17.9 4.86C17.9 5.53 17.76 6.2 17.48 6.88C17.2 7.56 16.89 8.16 16.55 8.69C16.22 9.21 15.65 9.89 14.86 10.72C14.06 11.55 13.39 12.23 12.84 12.74C12.3 13.25 11.43 14.03 10.22 15.09L8.92 16.25L7.62 15.13C6.45 14.05 5.58 13.25 5.03 12.74C4.47 12.23 3.79 11.55 2.99 10.72C2.2 9.89 1.63 9.21 1.29 8.69C0.96 8.16 0.66 7.56 0.39 6.88C0.13 6.2 0 5.53 0 4.86C0 3.5 0.47 2.35 1.42 1.41C2.37 0.47 3.53 0 4.9 0C6.52 0 7.86 0.62 8.92 1.87C9.99 0.62 11.33 0 12.95 0ZM9.01 13.8C10.38 12.58 11.38 11.67 12.01 11.08C12.63 10.48 13.33 9.77 14.08 8.93C14.84 8.1 15.36 7.38 15.65 6.75C15.95 6.13 16.09 5.5 16.09 4.86C16.09 3.97 15.79 3.24 15.19 2.66C14.59 2.07 13.84 1.78 12.95 1.78C12.28 1.78 11.64 1.98 11.04 2.37C10.44 2.75 10.01 3.25 9.76 3.86L8.09 3.86C7.86 3.25 7.45 2.75 6.85 2.37C6.25 1.98 5.6 1.78 4.9 1.78C4.01 1.78 3.26 2.07 2.68 2.66C2.09 3.24 1.8 3.97 1.8 4.86C1.8 5.5 1.94 6.13 2.22 6.75C2.5 7.38 3.02 8.1 3.79 8.93C4.56 9.77 5.26 10.48 5.88 11.08C6.51 11.67 7.5 12.58 8.84 13.8L8.92 13.88L9.01 13.8Z" fill="#9B9B9B" fill-opacity="1.000000" fill-rule="nonzero"/>
	</g>
</svg>
