<svg width="18.000000" height="18.000000" viewBox="0 0 18 18" fill="none" xmlns="http://www.w3.org/2000/svg" xmlns:xlink="http://www.w3.org/1999/xlink">
	<desc>
			Created with Pixso.
	</desc>
	<defs/>
	<path d="M9 0C4.12109 0 0 4.1211 0 9C0 11.8701 1.4328 14.4702 3.59998 16.1316L3.59998 16.2L3.69177 16.2C5.19299 17.3205 7.03168 18 9 18C10.9683 18 12.807 17.3205 14.3082 16.2L14.4 16.2L14.4 16.1316C16.5672 14.4702 18 11.871 18 9C18 4.1211 13.8789 0 9 0ZM14.049 14.0769C13.7057 13.2596 13.129 12.5617 12.3909 12.0705C11.653 11.5794 10.7865 11.3168 9.90002 11.3157L8.09998 11.3157C7.2135 11.3168 6.34705 11.5794 5.60907 12.0705C4.87103 12.5617 4.29431 13.2596 3.95099 14.0769C2.63068 12.7638 1.79999 10.9584 1.79999 9C1.79999 5.0967 5.09668 1.8 9 1.8C12.9033 1.8 16.2 5.0967 16.2 9C16.2 10.9584 15.3693 12.7638 14.049 14.0769ZM5.40002 7.2C5.40002 5.148 6.948 3.60001 9 3.60001C11.052 3.60001 12.6 5.148 12.6 7.2C12.6 9.25201 11.052 10.8 9 10.8C6.948 10.8 5.40002 9.25201 5.40002 7.2ZM7.20001 7.2C7.20001 8.26021 7.93982 9 9 9C10.0602 9 10.8 8.26021 10.8 7.2C10.8 6.1398 10.0602 5.4 9 5.4C7.93982 5.4 7.20001 6.1398 7.20001 7.2ZM5.46661 15.2343C5.59924 14.6344 5.93237 14.0975 6.41113 13.7124C6.88983 13.3272 7.4856 13.1168 8.09998 13.1157L9.90002 13.1157C10.5144 13.1169 11.11 13.3275 11.5887 13.7126C12.0674 14.0977 12.4006 14.6344 12.5334 15.2343C11.4822 15.8436 10.2744 16.2 9 16.2C7.72559 16.2 6.51782 15.8436 5.46661 15.2343Z" clip-rule="evenodd" fill="#9B9B9B" fill-opacity="1.000000" fill-rule="evenodd"/>
</svg>
